<svg width="568" height="588" viewBox="0 0 568 588" fill="none" xmlns="http://www.w3.org/2000/svg">
<path d="M247.93 138.516H250.93V135.516H247.93V138.516ZM-16.375 138.516V135.516H-19.375V138.516H-16.375ZM-16.375 203.484H-19.375V206.484H-16.375V203.484ZM79.8125 203.484H82.8125V200.484H79.8125V203.484ZM79.8125 441H76.8125V444H79.8125V441ZM151.531 441V444H154.531V441H151.531ZM151.531 203.484V200.484H148.531V203.484H151.531ZM247.93 203.484V206.484H250.93V203.484H247.93ZM247.93 135.516H-16.375V141.516H247.93V135.516ZM-19.375 138.516V203.484H-13.375V138.516H-19.375ZM-16.375 206.484H79.8125V200.484H-16.375V206.484ZM76.8125 203.484V441H82.8125V203.484H76.8125ZM79.8125 444H151.531V438H79.8125V444ZM154.531 441V203.484H148.531V441H154.531ZM151.531 206.484H247.93V200.484H151.531V206.484ZM250.93 203.484V138.516H244.93V203.484H250.93ZM403.812 378.773L406.684 377.904L405.628 374.418L402.409 376.122L403.812 378.773ZM357.617 281.109V278.109H354.617V281.109H357.617ZM416.891 281.109V284.109H419.891V281.109H416.891ZM416.891 220.781H419.891V217.781H416.891V220.781ZM357.617 220.781H354.617V223.781H357.617V220.781ZM357.617 151.594H360.617V148.594H357.617V151.594ZM288.43 151.594V148.594H285.43V151.594H288.43ZM288.43 220.781V223.781H291.43V220.781H288.43ZM254.258 220.781V217.781H251.258V220.781H254.258ZM254.258 281.109H251.258V284.109H254.258V281.109ZM288.43 281.109H291.43V278.109H288.43V281.109ZM420.477 433.828L421.58 436.618L424.148 435.603L423.348 432.959L420.477 433.828ZM402.409 376.122C395.687 379.681 388.367 381.469 380.398 381.469V387.469C389.305 387.469 397.594 385.46 405.216 381.425L402.409 376.122ZM380.398 381.469C373.267 381.469 368.475 379.688 365.441 376.633C362.403 373.574 360.617 368.724 360.617 361.477H354.617C354.617 369.628 356.628 376.273 361.184 380.861C365.744 385.452 372.342 387.469 380.398 387.469V381.469ZM360.617 361.477V281.109H354.617V361.477H360.617ZM357.617 284.109H416.891V278.109H357.617V284.109ZM419.891 281.109V220.781H413.891V281.109H419.891ZM416.891 217.781H357.617V223.781H416.891V217.781ZM360.617 220.781V151.594H354.617V220.781H360.617ZM357.617 148.594H288.43V154.594H357.617V148.594ZM285.43 151.594V220.781H291.43V151.594H285.43ZM288.43 217.781H254.258V223.781H288.43V217.781ZM251.258 220.781V281.109H257.258V220.781H251.258ZM254.258 284.109H288.43V278.109H254.258V284.109ZM285.43 281.109V361.477H291.43V281.109H285.43ZM285.43 361.477C285.43 387.923 292.103 408.96 305.801 424.427L310.293 420.448C297.835 406.383 291.43 386.921 291.43 361.477H285.43ZM305.801 424.427C319.612 440.02 339.955 447.586 366.477 447.586V441.586C341.108 441.586 322.638 434.386 310.293 420.448L305.801 424.427ZM366.477 447.586C384.818 447.586 403.121 443.916 421.58 436.618L419.374 431.038C401.551 438.084 383.994 441.586 366.477 441.586V447.586ZM423.348 432.959L406.684 377.904L400.941 379.643L417.605 434.697L423.348 432.959Z" fill="#0075C9"/>
<rect x="538.451" width="29.5489" height="29.5477" fill="#0075C9"/>
<rect x="538.451" y="558.452" width="29.5489" height="29.5477" fill="#0075C9"/>
<line x1="554.726" y1="19.7973" x2="554.726" y2="573.226" stroke="#0075C9" stroke-width="3"/>
<line x1="553.226" y1="16.274" x2="-0.225525" y2="16.2739" stroke="#0075C9" stroke-width="3"/>
<line x1="538.451" y1="574.726" x2="-14.9999" y2="574.726" stroke="#0075C9" stroke-width="3"/>
</svg>
