<svg width="64" height="64" viewBox="0 0 64 64" fill="none" xmlns="http://www.w3.org/2000/svg">
<path d="M17.8475 5V14.322" stroke="#8B00C8" stroke-width="3" stroke-linecap="round" stroke-linejoin="round"/>
<path d="M27.1696 5V14.322" stroke="#8B00C8" stroke-width="3" stroke-linecap="round" stroke-linejoin="round"/>
<path d="M36.4916 5V14.322" stroke="#8B00C8" stroke-width="3" stroke-linecap="round" stroke-linejoin="round"/>
<path d="M2 60H52.339" stroke="#8B00C8" stroke-width="3" stroke-linecap="round" stroke-linejoin="round"/>
<path d="M16.6727 60C12.2934 58.0045 8.5829 54.8026 5.98198 50.7748C3.38106 46.7469 1.99901 42.0624 2 37.2775V23.644H52.339V37.2775C52.34 42.0624 50.9579 46.7469 48.357 50.7748C45.7561 54.8026 42.0456 58.0045 37.6663 60" stroke="#8B00C8" stroke-width="3" stroke-linecap="round" stroke-linejoin="round"/>
<path d="M52.3917 23.644C54.8501 23.644 57.2078 24.6044 58.9462 26.3137C60.6845 28.0231 61.6611 30.3415 61.6611 32.7589V35.0376C61.6611 37.4551 60.6845 39.7735 58.9462 41.4828C57.2078 43.1922 54.8501 44.1525 52.3917 44.1525H51.4069" stroke="#8B00C8" stroke-width="3" stroke-linecap="round" stroke-linejoin="round"/>
</svg>
