<svg width="648" height="565" viewBox="0 0 648 565" fill="none" xmlns="http://www.w3.org/2000/svg">
<g opacity="0.4" clip-path="url(#clip0_93_5703)">
<mask id="mask0_93_5703" style="mask-type:alpha" maskUnits="userSpaceOnUse" x="0" y="-652" width="1221" height="1217">
<rect width="962.947" height="759.791" transform="matrix(0.71934 0.694658 0.694064 -0.719913 0.888184 -104.045)" fill="#FF5200"/>
</mask>
<g mask="url(#mask0_93_5703)">
<path d="M120.397 522.091L136.792 537.935L153.188 553.78L169.583 569.624L185.979 585.468L202.375 601.312L218.77 617.156L235.166 633L104.001 506.247L104.001 537.935L120.397 522.091Z" fill="#FF5200"/>
<path d="M136.792 537.936L104.001 569.624L104.001 601.312L153.188 553.78L136.792 537.936Z" fill="#FF5200"/>
<path d="M218.77 395.338L202.375 411.182L185.979 427.026L169.583 442.87L153.188 458.714L136.792 474.558L120.396 490.402L104.001 474.558L104.001 506.247L235.166 379.494L218.77 395.338Z" fill="#FF5200"/>
<path d="M136.792 284.43L153.188 300.274L169.583 316.118L185.979 331.962L202.375 347.806L218.77 363.651L235.166 379.495L104.001 252.742L104.001 284.43L120.396 268.586L136.792 284.43Z" fill="#FF5200"/>
<path d="M136.792 284.429L104.001 316.118L104.001 347.806L153.188 300.273L136.792 284.429Z" fill="#FF5200"/>
<path d="M153.188 458.715L104.001 411.183L104.001 442.871L136.792 474.559L153.188 458.715Z" fill="#FF5200"/>
<path d="M185.979 427.027L136.792 379.494L185.979 331.962L169.583 316.118L104.001 379.494L169.583 442.871L185.979 427.027Z" fill="#FF5200"/>
<path d="M218.77 363.65L202.374 347.806L169.583 379.494L202.374 411.182L218.77 395.338L202.374 379.494L218.77 363.65Z" fill="#FF5200"/>
<path d="M218.77 141.833L202.375 157.677L185.979 173.521L169.583 189.365L153.188 205.209L136.792 221.053L120.396 236.897L104.001 221.053L104.001 252.741L235.166 125.988L218.77 141.833Z" fill="#FF5200"/>
<path d="M136.792 30.9244L153.188 46.7685L169.583 62.6126L185.979 78.4567L202.375 94.3008L218.77 110.145L235.166 125.989L104.001 -0.763768L104.001 30.9244L120.396 15.0803L136.792 30.9244Z" fill="#FF5200"/>
<path d="M153.188 205.21L104.001 157.678L104.001 189.366L136.792 221.054L153.188 205.21Z" fill="#FF5200"/>
<path d="M136.792 30.9253L104.001 62.6136L104.001 94.3018L153.188 46.7694L136.792 30.9253Z" fill="#FF5200"/>
<path d="M185.979 173.522L136.792 125.99L185.979 78.4575L169.583 62.6134L104.001 125.99L169.583 189.366L185.979 173.522Z" fill="#FF5200"/>
<path d="M218.77 110.144L202.374 94.3003L169.583 125.989L202.374 157.677L218.77 141.833L202.374 125.989L218.77 110.144Z" fill="#FF5200"/>
<path d="M251.562 617.156L136.792 506.247L251.562 395.339L235.166 379.494L104.001 506.247L235.166 633L251.562 617.156Z" fill="#FF5200"/>
<path d="M284.352 427.027L267.957 411.183L169.583 506.248L267.957 601.313L284.352 585.468L202.374 506.248L284.352 427.027Z" fill="#FF5200"/>
<path d="M317.145 458.715L300.749 442.871L235.167 506.248L300.749 569.624L317.145 553.78L267.958 506.248L317.145 458.715Z" fill="#FF5200"/>
<path d="M349.936 490.402L333.54 474.558L300.749 506.246L333.54 537.934L349.936 522.09L333.54 506.246L349.936 490.402Z" fill="#FF5200"/>
<path d="M251.561 363.651L136.792 252.742L251.561 141.833L235.166 125.989L104.001 252.742L235.166 379.495L251.561 363.651Z" fill="#FF5200"/>
<path d="M284.352 173.521L267.957 157.677L169.583 252.742L267.957 347.806L284.352 331.962L202.374 252.742L284.352 173.521Z" fill="#FF5200"/>
<path d="M317.145 205.21L300.749 189.366L235.167 252.742L300.749 316.118L317.145 300.274L267.958 252.742L317.145 205.21Z" fill="#FF5200"/>
<path d="M349.936 236.898L333.54 221.054L300.749 252.742L333.54 284.43L349.936 268.586L333.54 252.742L349.936 236.898Z" fill="#FF5200"/>
<path d="M251.561 110.145L136.792 -0.763816L251.561 -111.673L235.166 -127.517L104.001 -0.763816L235.166 125.989L251.561 110.145Z" fill="#FF5200"/>
<path d="M267.957 94.3008L284.352 78.4567L202.374 -0.763823L284.352 -79.9843L267.957 -95.8284L169.583 -0.763823L267.957 94.3008Z" fill="#FF5200"/>
<path d="M300.749 62.613L317.145 46.7689L267.958 -0.763348L317.145 -48.2956L300.749 -64.1397L235.167 -0.763348L300.749 62.613Z" fill="#FF5200"/>
<path d="M333.54 30.9246L349.936 15.0805L333.54 -0.763641L349.936 -16.6077L333.54 -32.4518L300.749 -0.763641L333.54 30.9246Z" fill="#FF5200"/>
<path d="M366.332 506.247L235.167 633L267.958 633L382.727 522.091L366.332 506.247Z" fill="#FF5200"/>
<path d="M399.123 537.935L300.749 633L333.54 633L415.518 553.779L399.123 537.935Z" fill="#FF5200"/>
<path d="M382.727 268.585L366.332 252.741L235.167 379.494L366.332 506.247L382.727 490.403L267.958 379.494L382.727 268.585Z" fill="#FF5200"/>
<path d="M415.518 300.274L399.123 284.43L300.749 379.495L399.123 474.559L415.518 458.715L333.54 379.495L415.518 300.274Z" fill="#FF5200"/>
<path d="M448.309 331.962L431.913 316.118L366.331 379.494L431.913 442.871L448.309 427.027L399.122 379.494L448.309 331.962Z" fill="#FF5200"/>
<path d="M481.1 363.65L464.704 347.805L431.913 379.494L464.704 411.182L481.1 395.338L464.704 379.494L481.1 363.65Z" fill="#FF5200"/>
<path d="M366.332 252.741L382.727 236.897L267.958 125.989L382.727 15.0799L366.332 -0.764156L235.167 125.989L366.332 252.741Z" fill="#FF5200"/>
<path d="M399.123 221.054L415.518 205.21L333.54 125.989L415.518 46.7688L399.123 30.9247L300.749 125.989L399.123 221.054Z" fill="#FF5200"/>
<path d="M431.913 189.366L448.309 173.522L399.122 125.99L448.309 78.4576L431.913 62.6135L366.331 125.99L431.913 189.366Z" fill="#FF5200"/>
<path d="M464.704 157.677L481.1 141.833L464.704 125.989L481.1 110.144L464.704 94.3003L431.913 125.989L464.704 157.677Z" fill="#FF5200"/>
<path d="M399.122 506.247L513.891 395.339L497.496 379.494L366.331 506.247L497.496 633L513.891 617.156L399.122 506.247Z" fill="#FF5200"/>
<path d="M546.682 427.027L530.287 411.183L431.913 506.248L530.287 601.313L546.682 585.468L464.704 506.248L546.682 427.027Z" fill="#FF5200"/>
<path d="M579.473 458.715L563.078 442.871L497.495 506.247L563.078 569.624L579.473 553.78L530.286 506.247L579.473 458.715Z" fill="#FF5200"/>
<path d="M612.266 490.402L595.87 474.558L563.079 506.246L595.87 537.934L612.266 522.09L595.87 506.246L612.266 490.402Z" fill="#FF5200"/>
<path d="M497.496 379.495L513.891 363.651L399.122 252.742L513.891 141.833L497.496 125.989L366.331 252.742L497.496 379.495Z" fill="#FF5200"/>
<path d="M530.287 347.806L546.682 331.962L464.704 252.742L546.682 173.521L530.287 157.677L431.913 252.742L530.287 347.806Z" fill="#FF5200"/>
<path d="M563.078 316.117L579.473 300.273L530.286 252.741L579.473 205.209L563.078 189.365L497.495 252.741L563.078 316.117Z" fill="#FF5200"/>
<path d="M595.87 284.429L612.266 268.585L595.87 252.741L612.266 236.897L595.87 221.053L563.079 252.741L595.87 284.429Z" fill="#FF5200"/>
<path d="M497.496 125.988L513.891 110.144L399.122 -0.764792L513.891 -111.674L497.496 -127.518L366.331 -0.764792L497.496 125.988Z" fill="#FF5200"/>
<path d="M530.287 94.3008L546.682 78.4567L464.704 -0.763823L546.682 -79.9843L530.287 -95.8284L431.913 -0.763823L530.287 94.3008Z" fill="#FF5200"/>
<path d="M563.078 62.613L579.473 46.7689L530.286 -0.763366L579.473 -48.2957L563.078 -64.1398L497.495 -0.763366L563.078 62.613Z" fill="#FF5200"/>
<path d="M595.87 30.9246L612.266 15.0805L595.87 -0.763647L612.266 -16.6078L595.87 -32.4519L563.079 -0.763647L595.87 30.9246Z" fill="#FF5200"/>
<path d="M628.66 506.247L497.495 633L530.286 633L645.056 522.091L628.66 506.247Z" fill="#FF5200"/>
<path d="M661.453 537.935L563.079 633L595.87 633L677.848 553.779L661.453 537.935Z" fill="#FF5200"/>
<path d="M645.056 268.585L628.66 252.741L497.495 379.494L628.66 506.247L645.056 490.403L530.286 379.494L645.056 268.585Z" fill="#FF5200"/>
<path d="M677.848 300.274L661.453 284.43L563.079 379.495L661.453 474.559L677.848 458.715L595.87 379.495L677.848 300.274Z" fill="#FF5200"/>
<path d="M710.639 331.962L694.244 316.118L628.661 379.494L694.244 442.871L710.639 427.027L661.452 379.494L710.639 331.962Z" fill="#FF5200"/>
<path d="M628.66 252.741L645.056 236.897L530.286 125.989L645.056 15.0799L628.66 -0.764156L497.495 125.989L628.66 252.741Z" fill="#FF5200"/>
<path d="M661.453 221.054L677.848 205.21L595.87 125.989L677.848 46.7689L661.453 30.9248L563.079 125.989L661.453 221.054Z" fill="#FF5200"/>
<path d="M694.244 189.366L710.639 173.522L661.452 125.99L710.639 78.4575L694.244 62.6134L628.661 125.99L694.244 189.366Z" fill="#FF5200"/>
<path d="M661.452 506.247L776.222 395.339L759.826 379.494L628.661 506.247L759.826 633L776.222 617.156L661.452 506.247Z" fill="#FF5200"/>
<path d="M759.826 379.494L776.222 363.65L661.452 252.742L776.222 141.833L759.826 125.989L628.661 252.742L759.826 379.494Z" fill="#FF5200"/>
<path d="M759.826 125.988L776.222 110.144L661.452 -0.764536L776.222 -111.673L759.826 -127.517L628.661 -0.764536L759.826 125.988Z" fill="#FF5200"/>
</g>
</g>
<defs>
<clipPath id="clip0_93_5703">
<rect width="1220.03" height="1215.9" fill="white" transform="translate(0.888184 -651.028)"/>
</clipPath>
</defs>
</svg>
