<svg width="173" height="120" viewBox="0 0 173 120" fill="none" xmlns="http://www.w3.org/2000/svg">
<path fill-rule="evenodd" clip-rule="evenodd" d="M59.3969 0.000129775L-5.60796e-05 59.3971L59.3969 118.794L86.3969 91.7941L113.397 118.794L139.082 93.1089L172.794 59.3971L139.082 25.6854L113.397 0.000130038L86.3969 27.0001L59.3969 0.000129775ZM59.3969 14.1423L14.1421 59.3971L59.3969 104.652L104.652 59.3971L59.3969 14.1423ZM59.3969 28.2844L28.2842 59.3971L59.3969 90.5098L90.5096 59.3971L59.3969 28.2844ZM59.3969 42.4265L42.4264 59.3971L59.3969 76.3677L76.3675 59.3971L59.3969 42.4265ZM113.398 51.3699L131.056 33.7113L113.398 16.0534L95.7398 33.7119L113.398 51.3699ZM139.082 77.0555L121.424 59.3971L139.082 41.7387L156.74 59.3971L139.082 77.0555ZM113.398 67.4243L95.7398 85.0823L113.398 102.741L131.056 85.0829L113.398 67.4243Z" fill="#009946"/>
</svg>
