<svg width="1440" height="366" viewBox="0 0 1440 366" fill="none" xmlns="http://www.w3.org/2000/svg">
<g opacity="0.3">
<path d="M1380 183.613L1350 152.925L1320 122.238L1290 91.5504L1260 60.8629L1230 30.1755L1200 -0.512032L1440 244.988L1440 183.613L1410 214.3L1380 183.613Z" fill="#42403E"/>
<path d="M1380 183.613L1440 122.238L1440 60.8635L1350 152.926L1380 183.613Z" fill="#42403E"/>
<path d="M1290 -92.574L1380 -0.5114L1290 91.5512L1320 122.239L1440 -0.511398L1320 -123.261L1290 -92.574Z" fill="#42403E"/>
<path d="M1230 30.1766L1260 60.8641L1320 -0.510891L1260 -61.8859L1230 -31.1984L1260 -0.510893L1230 30.1766Z" fill="#42403E"/>
<path d="M1230 459.801L1260 429.114L1290 398.426L1320 367.739L1350 337.051L1380 306.364L1410 275.676L1440 306.364L1440 244.989L1200 490.489L1230 459.801Z" fill="#42403E"/>
<path d="M1350 337.052L1440 429.114L1440 367.739L1380 306.364L1350 337.052Z" fill="#42403E"/>
<path d="M1170 30.1755L1380 244.988L1170 459.801L1200 490.489L1440 244.988L1200 -0.512032L1170 30.1755Z" fill="#42403E"/>
<path d="M1110 398.427L1140 429.114L1320 244.989L1140 60.8636L1110 91.5511L1260 244.989L1110 398.427Z" fill="#42403E"/>
<path d="M1050 337.052L1080 367.739L1200 244.989L1080 122.239L1050 152.927L1140 244.989L1050 337.052Z" fill="#42403E"/>
<path d="M990 275.675L1020 306.363L1080 244.988L1020 183.613L990 214.301L1020 244.988L990 275.675Z" fill="#42403E"/>
<path d="M930.001 214.302L960.001 244.989L1200 -0.510696L960.001 -246.011L930.001 -215.323L1140 -0.510698L930.001 214.302Z" fill="#42403E"/>
<path d="M870.001 152.926L900.001 183.613L1080 -0.512054L900.001 -184.637L870.001 -153.95L1020 -0.512056L870.001 152.926Z" fill="#42403E"/>
<path d="M810.001 91.5512L840.001 122.239L960.001 -0.51136L840.001 -123.261L810.001 -92.5739L900.001 -0.511362L810.001 91.5512Z" fill="#42403E"/>
<path d="M750 30.1767L780 60.8642L840 -0.510818L780 -61.8858L750 -31.1983L780 -0.51082L750 30.1767Z" fill="#42403E"/>
<path d="M960 244.989L930 275.676L1140 490.489L930 705.301L960 735.989L1200 490.489L960 244.989Z" fill="#42403E"/>
<path d="M900 306.364L870 337.051L1020 490.489L870 643.927L900 674.614L1080 490.489L900 306.364Z" fill="#42403E"/>
<path d="M720.001 -0.512032L690.001 30.1755L900.001 244.988L690.001 459.8L720.001 490.488L960.001 244.988L720.001 -0.512032Z" fill="#42403E"/>
<path d="M660 60.8635L630 91.551L780 244.988L630 398.426L660 429.113L840 244.988L660 60.8635Z" fill="#42403E"/>
<path d="M600.001 122.239L570.001 152.927L660.001 244.989L570.001 337.052L600.001 367.739L720.001 244.989L600.001 122.239Z" fill="#42403E"/>
<path d="M540.001 183.613L510.001 214.301L540.001 244.988L510.001 275.676L540.001 306.363L600.001 244.988L540.001 183.613Z" fill="#42403E"/>
<path d="M450.001 214.302L480.001 244.989L720.001 -0.510712L480.001 -246.011L450.001 -215.323L660.001 -0.510714L450.001 214.302Z" fill="#42403E"/>
<path d="M390.001 152.926L420.001 183.613L600.001 -0.511749L420.001 -184.637L390.001 -153.949L540.001 -0.511751L390.001 152.926Z" fill="#42403E"/>
<path d="M330.001 91.5511L360.001 122.239L480 -0.511391L360.001 -123.261L330.001 -92.5739L420 -0.511393L330.001 91.5511Z" fill="#42403E"/>
<path d="M270 30.1766L300 60.8641L360 -0.510902L300 -61.8859L270 -31.1984L300 -0.510904L270 30.1766Z" fill="#42403E"/>
<path d="M480.001 244.989L450.001 275.676L660.001 490.489L450.001 705.301L480.001 735.988L720.001 490.489L480.001 244.989Z" fill="#42403E"/>
<path d="M420.002 306.364L390.002 337.051L540.001 490.489L390.002 643.927L420.002 674.614L600.001 490.489L420.002 306.364Z" fill="#42403E"/>
<path d="M240 -0.512032L210 30.1755L420 244.988L210 459.801L240 490.489L480 244.988L240 -0.512032Z" fill="#42403E"/>
<path d="M180 60.8635L150 91.551L300 244.988L150 398.426L180 429.113L360 244.988L180 60.8635Z" fill="#42403E"/>
<path d="M120 122.239L90.0005 152.927L180 244.989L90.0005 337.052L120 367.739L240 244.989L120 122.239Z" fill="#42403E"/>
<path d="M59.9994 183.613L29.9994 214.3L59.9994 244.988L29.9994 275.675L59.9994 306.363L119.999 244.988L59.9994 183.613Z" fill="#42403E"/>
<path d="M240 -0.510712L0.000457764 -246.011L0.000454225 -184.636L180 -0.510714L0.000432991 183.614L0.000429452 244.989L240 -0.510712Z" fill="#42403E"/>
<path d="M-0.00062561 -123.261L-0.000629149 -61.8864L59.9994 -0.511393L-0.000636227 60.8636L-0.000639766 122.239L119.999 -0.511391L-0.00062561 -123.261Z" fill="#42403E"/>
<path d="M240 490.609L0.000457764 245.108L0.000454225 306.483L180 490.609L0.000432991 674.734L0.000429452 736.109L240 490.609Z" fill="#42403E"/>
</g>
</svg>
