<svg width="1344" height="664" viewBox="0 0 1344 664" fill="none" xmlns="http://www.w3.org/2000/svg">
<g clip-path="url(#clip0_32_3785)">
<rect width="1344" height="664" fill="#FFF5F0"/>
<g style="mix-blend-mode:lighten" opacity="0.6">
<path d="M175.762 -1.47658L146.459 27.5712L117.157 56.619L87.8547 85.6667L58.5524 114.715L29.2501 143.762L-0.0521961 172.81L-29.3545 201.858L205.064 -30.5244L146.459 -30.5244L175.762 -1.47658Z" fill="white"/>
</g>
<g style="mix-blend-mode:lighten" opacity="0.6">
<path d="M146.457 27.571L87.8526 -30.5245L29.248 -30.5245L117.155 56.6188L146.457 27.571Z" fill="white"/>
</g>
<g style="mix-blend-mode:lighten" opacity="0.6">
<path d="M87.8547 85.6668L-29.3545 -30.5244L-29.3545 27.5712L58.5524 114.715L87.8547 85.6668Z" fill="white"/>
</g>
<g style="mix-blend-mode:lighten" opacity="0.6">
<path d="M29.2501 143.762L-29.3545 85.6663L-29.3545 143.762L-0.0521963 172.81L29.2501 143.762Z" fill="white"/>
</g>
<g style="mix-blend-mode:lighten" opacity="0.6">
<path d="M410.18 172.81L380.877 143.762L351.575 114.714L322.273 85.6665L292.97 56.6188L263.668 27.571L234.366 -1.47676L263.668 -30.5245L205.063 -30.5245L439.482 201.858L410.18 172.81Z" fill="white"/>
</g>
<g style="mix-blend-mode:lighten" opacity="0.6">
<path d="M615.295 27.571L585.993 56.6188L556.691 85.6665L527.388 114.714L498.086 143.762L468.784 172.81L439.481 201.858L673.9 -30.5245L615.295 -30.5245L644.598 -1.47676L615.295 27.571Z" fill="white"/>
</g>
<g style="mix-blend-mode:lighten" opacity="0.6">
<path d="M615.295 27.571L556.691 -30.5246L498.086 -30.5246L585.993 56.6187L615.295 27.571Z" fill="white"/>
</g>
<g style="mix-blend-mode:lighten" opacity="0.6">
<path d="M292.97 56.6188L380.877 -30.5245L322.273 -30.5245L263.668 27.571L292.97 56.6188Z" fill="white"/>
</g>
<g style="mix-blend-mode:lighten" opacity="0.6">
<path d="M351.576 114.714L439.483 27.571L527.39 114.714L556.692 85.6665L439.483 -30.5246L322.274 85.6665L351.576 114.714Z" fill="white"/>
</g>
<g style="mix-blend-mode:lighten" opacity="0.6">
<path d="M468.783 172.81L498.085 143.762L439.481 85.6663L380.876 143.762L410.178 172.81L439.481 143.762L468.783 172.81Z" fill="white"/>
</g>
<g style="mix-blend-mode:lighten" opacity="0.6">
<path d="M879.017 172.81L849.714 143.762L820.412 114.714L791.11 85.6665L761.808 56.6187L732.505 27.5709L703.203 -1.47683L732.505 -30.5246L673.901 -30.5246L908.319 201.858L879.017 172.81Z" fill="white"/>
</g>
<g style="mix-blend-mode:lighten" opacity="0.6">
<path d="M1084.13 27.571L1054.83 56.6188L1025.53 85.6665L996.227 114.714L966.925 143.762L937.623 172.81L908.32 201.858L1142.74 -30.5245L1084.13 -30.5245L1113.44 -1.47676L1084.13 27.571Z" fill="white"/>
</g>
<g style="mix-blend-mode:lighten" opacity="0.6">
<path d="M761.806 56.6188L849.713 -30.5245L791.108 -30.5245L732.504 27.571L761.806 56.6188Z" fill="white"/>
</g>
<g style="mix-blend-mode:lighten" opacity="0.6">
<path d="M1084.13 27.571L1025.53 -30.5246L966.923 -30.5246L1054.83 56.6187L1084.13 27.571Z" fill="white"/>
</g>
<g style="mix-blend-mode:lighten" opacity="0.6">
<path d="M820.414 114.714L908.32 27.571L996.227 114.714L1025.53 85.6665L908.32 -30.5246L791.111 85.6665L820.414 114.714Z" fill="white"/>
</g>
<g style="mix-blend-mode:lighten" opacity="0.6">
<path d="M937.62 172.81L966.922 143.762L908.317 85.6663L849.713 143.762L879.015 172.81L908.317 143.762L937.62 172.81Z" fill="white"/>
</g>
<g style="mix-blend-mode:lighten" opacity="0.6">
<path d="M-0.0521922 230.906L205.064 27.5712L410.18 230.906L439.482 201.858L205.064 -30.5244L-29.3545 201.858L-0.0521922 230.906Z" fill="white"/>
</g>
<g style="mix-blend-mode:lighten" opacity="0.6">
<path d="M351.573 289.001L380.876 259.953L205.062 85.6663L29.248 259.953L58.5503 289.001L205.062 143.762L351.573 289.001Z" fill="white"/>
</g>
<g style="mix-blend-mode:lighten" opacity="0.6">
<path d="M292.972 347.097L322.274 318.049L205.065 201.858L87.8555 318.049L117.158 347.097L205.065 259.953L292.972 347.097Z" fill="white"/>
</g>
<g style="mix-blend-mode:lighten" opacity="0.6">
<path d="M234.366 405.192L263.668 376.145L205.064 318.049L146.459 376.145L175.761 405.192L205.064 376.145L234.366 405.192Z" fill="white"/>
</g>
<g style="mix-blend-mode:lighten" opacity="0.6">
<path d="M468.784 230.905L673.9 27.571L879.016 230.905L908.318 201.858L673.9 -30.5245L439.481 201.858L468.784 230.905Z" fill="white"/>
</g>
<g style="mix-blend-mode:lighten" opacity="0.6">
<path d="M820.411 289.001L849.714 259.953L673.9 85.6663L498.086 259.953L527.388 289.001L673.9 143.762L820.411 289.001Z" fill="white"/>
</g>
<g style="mix-blend-mode:lighten" opacity="0.6">
<path d="M761.809 347.097L791.112 318.049L673.903 201.858L556.693 318.049L585.996 347.097L673.903 259.953L761.809 347.097Z" fill="white"/>
</g>
<g style="mix-blend-mode:lighten" opacity="0.6">
<path d="M703.202 405.192L732.504 376.144L673.9 318.049L615.295 376.144L644.597 405.192L673.9 376.144L703.202 405.192Z" fill="white"/>
</g>
<g style="mix-blend-mode:lighten" opacity="0.6">
<path d="M937.623 230.905L1142.74 27.571L1347.85 230.905L1377.16 201.858L1142.74 -30.5245L908.32 201.858L937.623 230.905Z" fill="white"/>
</g>
<g style="mix-blend-mode:lighten" opacity="0.6">
<path d="M966.923 259.953L996.225 289.001L1142.74 143.762L1289.25 289.001L1318.55 259.953L1142.74 85.6663L966.923 259.953Z" fill="white"/>
</g>
<g style="mix-blend-mode:lighten" opacity="0.6">
<path d="M1025.53 318.049L1054.83 347.096L1142.74 259.953L1230.65 347.096L1259.95 318.049L1142.74 201.858L1025.53 318.049Z" fill="white"/>
</g>
<g style="mix-blend-mode:lighten" opacity="0.6">
<path d="M1084.13 376.144L1113.44 405.192L1142.74 376.144L1172.04 405.192L1201.34 376.144L1142.74 318.049L1084.13 376.144Z" fill="white"/>
</g>
<g style="mix-blend-mode:lighten" opacity="0.6">
<path d="M1347.85 172.81L1318.55 143.762L1289.25 114.714L1259.95 85.6665L1230.64 56.6187L1201.34 27.5709L1172.04 -1.47683L1201.34 -30.5246L1142.74 -30.5246L1377.16 201.858L1347.85 172.81Z" fill="white"/>
</g>
<g style="mix-blend-mode:lighten" opacity="0.6">
<path d="M1230.64 56.6187L1318.55 -30.5246L1259.95 -30.5246L1201.34 27.571L1230.64 56.6187Z" fill="white"/>
</g>
<g style="mix-blend-mode:lighten" opacity="0.6">
<path d="M1289.25 114.714L1377.15 27.571L1377.15 -30.5246L1259.94 85.6665L1289.25 114.714Z" fill="white"/>
</g>
<g style="mix-blend-mode:lighten" opacity="0.6">
<path d="M1347.85 172.81L1377.15 143.762L1377.15 85.6663L1318.55 143.762L1347.85 172.81Z" fill="white"/>
</g>
<g style="mix-blend-mode:lighten" opacity="0.6">
<path d="M205.064 434.24L-29.3545 201.858L-29.3545 259.953L175.762 463.288L205.064 434.24Z" fill="white"/>
</g>
<g style="mix-blend-mode:lighten" opacity="0.6">
<path d="M146.459 492.336L-29.3545 318.049L-29.3545 376.145L117.157 521.383L146.459 492.336Z" fill="white"/>
</g>
<g style="mix-blend-mode:lighten" opacity="0.6">
<path d="M87.8547 550.431L-29.3545 434.24L-29.3545 492.335L58.5524 579.479L87.8547 550.431Z" fill="white"/>
</g>
<g style="mix-blend-mode:lighten" opacity="0.6">
<path d="M29.2501 608.526L-29.3545 550.431L-29.3545 608.526L-0.0521963 637.574L29.2501 608.526Z" fill="white"/>
</g>
<g style="mix-blend-mode:lighten" opacity="0.6">
<path d="M644.598 463.288L673.9 434.24L439.482 201.858L205.063 434.24L234.366 463.288L439.482 259.953L644.598 463.288Z" fill="white"/>
</g>
<g style="mix-blend-mode:lighten" opacity="0.6">
<path d="M585.993 521.383L615.296 492.336L439.482 318.049L263.668 492.336L292.97 521.383L439.482 376.144L585.993 521.383Z" fill="white"/>
</g>
<g style="mix-blend-mode:lighten" opacity="0.6">
<path d="M527.39 579.479L556.692 550.431L439.483 434.24L322.273 550.431L351.576 579.479L439.483 492.335L527.39 579.479Z" fill="white"/>
</g>
<g style="mix-blend-mode:lighten" opacity="0.6">
<path d="M468.783 637.574L498.085 608.526L439.481 550.431L380.876 608.526L410.178 637.574L439.481 608.526L468.783 637.574Z" fill="white"/>
</g>
<g style="mix-blend-mode:lighten" opacity="0.6">
<path d="M673.9 434.24L703.203 463.288L908.319 259.953L1113.43 463.288L1142.74 434.24L908.319 201.858L673.9 434.24Z" fill="white"/>
</g>
<g style="mix-blend-mode:lighten" opacity="0.6">
<path d="M732.505 492.336L761.807 521.383L908.319 376.144L1054.83 521.383L1084.13 492.336L908.319 318.049L732.505 492.336Z" fill="white"/>
</g>
<g style="mix-blend-mode:lighten" opacity="0.6">
<path d="M791.111 550.43L820.414 579.478L908.321 492.335L996.227 579.478L1025.53 550.43L908.321 434.239L791.111 550.43Z" fill="white"/>
</g>
<g style="mix-blend-mode:lighten" opacity="0.6">
<path d="M849.713 608.526L879.015 637.574L908.317 608.526L937.62 637.574L966.922 608.526L908.317 550.43L849.713 608.526Z" fill="white"/>
</g>
<g style="mix-blend-mode:lighten" opacity="0.6">
<path d="M205.064 492.335L410.18 695.67L439.482 666.622L205.064 434.24L-29.3545 666.622L-0.0521922 695.67L205.064 492.335Z" fill="white"/>
</g>
<g style="mix-blend-mode:lighten" opacity="0.6">
<path d="M351.573 753.765L380.876 724.717L205.062 550.431L29.248 724.717L58.5503 753.765L205.062 608.526L351.573 753.765Z" fill="white"/>
</g>
<g style="mix-blend-mode:lighten" opacity="0.6">
<path d="M439.483 666.622L468.786 695.67L673.902 492.335L879.018 695.67L908.32 666.622L673.902 434.24L439.483 666.622Z" fill="white"/>
</g>
<g style="mix-blend-mode:lighten" opacity="0.6">
<path d="M498.086 724.717L527.388 753.765L673.9 608.526L820.411 753.765L849.714 724.717L673.9 550.431L498.086 724.717Z" fill="white"/>
</g>
<g style="mix-blend-mode:lighten" opacity="0.6">
<path d="M908.32 666.621L937.623 695.669L1142.74 492.335L1347.85 695.669L1377.16 666.621L1142.74 434.239L908.32 666.621Z" fill="white"/>
</g>
<g style="mix-blend-mode:lighten" opacity="0.6">
<path d="M966.924 724.717L996.226 753.765L1142.74 608.526L1289.25 753.765L1318.55 724.717L1142.74 550.431L966.924 724.717Z" fill="white"/>
</g>
<g style="mix-blend-mode:lighten" opacity="0.6">
<path d="M1172.04 463.288L1377.15 259.953L1377.15 201.858L1142.74 434.24L1172.04 463.288Z" fill="white"/>
</g>
<g style="mix-blend-mode:lighten" opacity="0.6">
<path d="M1230.65 521.383L1377.16 376.144L1377.16 318.049L1201.34 492.335L1230.65 521.383Z" fill="white"/>
</g>
<g style="mix-blend-mode:lighten" opacity="0.6">
<path d="M1289.25 579.479L1377.15 492.335L1377.15 434.24L1259.95 550.431L1289.25 579.479Z" fill="white"/>
</g>
<g style="mix-blend-mode:lighten" opacity="0.6">
<path d="M1347.85 637.574L1377.15 608.526L1377.15 550.43L1318.55 608.526L1347.85 637.574Z" fill="white"/>
</g>
</g>
<defs>
<clipPath id="clip0_32_3785">
<rect width="1344" height="664" fill="white"/>
</clipPath>
</defs>
</svg>
