<svg width="176" height="120" viewBox="0 0 176 120" fill="none" xmlns="http://www.w3.org/2000/svg">
<path fill-rule="evenodd" clip-rule="evenodd" d="M7.69575e-05 60L59.3971 0.603042L73.5392 14.7452L87.6813 0.603035L101.823 14.7451L115.965 0.603027L175.362 60L115.965 119.397L101.823 105.255L87.6813 119.397L73.5392 105.255L59.3971 119.397L7.69575e-05 60ZM73.5392 91.1127L80.6102 98.1838L87.6813 105.255L94.7523 98.1839L101.823 91.1128L132.936 60L101.823 28.8872L94.7523 21.8161L87.6813 14.7452L80.6103 21.8162L73.5392 28.8873L42.4265 60L73.5392 91.1127ZM66.4681 21.8163L28.2843 60L66.4681 98.1837L59.397 105.255L14.1422 60L59.397 14.7452L66.4681 21.8163ZM108.894 21.8161L147.078 60L108.894 98.1839L115.965 105.255L161.22 60L115.965 14.7452L108.894 21.8161ZM87.6813 28.8873L56.5686 60L87.6813 91.1127L118.794 60L87.6813 28.8873ZM87.6813 43.0294L70.7108 60L87.6813 76.9706L104.652 60L87.6813 43.0294Z" fill="#0075C9"/>
</svg>
