<svg width="724" height="244" viewBox="0 0 724 244" fill="none" xmlns="http://www.w3.org/2000/svg">
<rect width="244" height="244" fill="#0A0A0A"/>
<rect x="98" y="64" width="82" height="82" fill="#FF5200"/>
<path fill-rule="evenodd" clip-rule="evenodd" d="M82 98H64V180H146V162H82V98Z" fill="white"/>
<path d="M360.293 59.1982C353.657 59.1982 348.516 61.4834 344.912 66.0537C341.968 61.4834 337.397 59.1982 331.201 59.1982C325.62 59.1982 321.094 61.4395 317.666 65.8779V60.4727H305.801V106H317.666V83.1484C317.666 79.0615 318.501 75.8975 320.171 73.6562C321.841 71.415 324.258 70.2725 327.466 70.2725C333.135 70.2725 335.991 74.0078 335.991 81.4346V106H347.988V82.7969C347.988 78.7979 348.823 75.7217 350.493 73.5244C352.163 71.3271 354.536 70.2285 357.656 70.2285C363.457 70.2285 366.357 73.9639 366.357 81.3906V105.956H378.267V78.8857C378.267 72.6455 376.641 67.8115 373.389 64.3398C370.137 60.8682 365.742 59.1543 360.249 59.1543L360.293 59.1982ZM409.248 107.274C415.488 107.274 420.366 104.989 423.882 100.419V106H435.879V60.4727H423.882V65.9658C420.366 61.4395 415.488 59.1982 409.248 59.1982C402.876 59.1982 397.515 61.4834 393.208 66.0537C388.901 70.624 386.748 76.3809 386.748 83.2803C386.748 90.0918 388.901 95.8047 393.208 100.419C397.515 105.033 402.832 107.318 409.204 107.318L409.248 107.274ZM411.27 96.6836C407.534 96.6836 404.458 95.4092 402.041 92.9043C399.624 90.3994 398.438 87.1475 398.438 83.1924C398.438 79.2812 399.624 76.0732 402.041 73.5684C404.458 71.0635 407.534 69.833 411.27 69.833C414.917 69.833 417.993 71.1074 420.498 73.6123C423.003 76.1172 424.233 79.2812 424.233 83.1045C424.233 87.0156 423.003 90.2236 420.498 92.7725C417.993 95.3213 414.917 96.5957 411.27 96.5957V96.6836ZM459.39 67.1963V60.4727H447.524V106H459.39V86.1807C459.39 80.2041 460.664 75.9854 463.169 73.5244C465.674 71.0635 469.409 70.2285 474.375 71.0195V59.8574C467.344 58.8906 462.334 61.3516 459.346 67.2402L459.39 67.1963ZM512.563 106H526.099L506.807 80.0723L524.297 60.4727H510.41L494.019 79.2812V40.3018H482.153V106H494.019V94.3984L499.336 88.4658L512.563 106ZM558.882 59.1982C552.773 59.1982 547.896 61.5273 544.248 66.2295V40.3018H532.383V106H544.248V83.5C544.248 79.501 545.259 76.293 547.28 73.876C549.302 71.459 551.938 70.2725 555.234 70.2725C558.442 70.2725 560.859 71.2832 562.485 73.3047C564.111 75.3262 564.946 78.0947 564.946 81.6543V106.044H576.855V79.4131C576.855 73.1729 575.317 68.251 572.241 64.6475C569.165 61.0439 564.727 59.2422 558.882 59.2422V59.1982ZM607.793 107.274C614.033 107.274 618.911 104.989 622.427 100.419V106H634.424V60.4727H622.427V65.9658C618.911 61.4395 614.033 59.1982 607.793 59.1982C601.421 59.1982 596.06 61.4834 591.753 66.0537C587.446 70.624 585.293 76.3809 585.293 83.2803C585.293 90.0918 587.446 95.8047 591.753 100.419C596.06 105.033 601.377 107.318 607.749 107.318L607.793 107.274ZM609.814 96.6836C606.079 96.6836 603.003 95.4092 600.586 92.9043C598.169 90.3994 596.982 87.1475 596.982 83.1924C596.982 79.2812 598.169 76.0732 600.586 73.5684C603.003 71.0635 606.079 69.833 609.814 69.833C613.462 69.833 616.538 71.1074 619.043 73.6123C621.548 76.1172 622.778 79.2812 622.778 83.1045C622.778 87.0156 621.548 90.2236 619.043 92.7725C616.538 95.3213 613.462 96.5957 609.814 96.5957V96.6836ZM700.518 59.1982C693.882 59.1982 688.74 61.4834 685.137 66.0537C682.192 61.4834 677.622 59.1982 671.426 59.1982C665.845 59.1982 661.318 61.4395 657.891 65.8779V60.4727H646.025V106H657.891V83.1484C657.891 79.0615 658.726 75.8975 660.396 73.6562C662.065 71.415 664.482 70.2725 667.69 70.2725C673.359 70.2725 676.216 74.0078 676.216 81.4346V106H688.213V82.7969C688.213 78.7979 689.048 75.7217 690.718 73.5244C692.388 71.3271 694.761 70.2285 697.881 70.2285C703.682 70.2285 706.582 73.9639 706.582 81.3906V105.956H718.491V78.8857C718.491 72.6455 716.865 67.8115 713.613 64.3398C710.361 60.8682 705.967 59.1543 700.474 59.1543L700.518 59.1982ZM323.774 192.274C329.531 192.274 334.233 190.868 337.925 188.056C341.616 185.243 343.462 181.684 343.462 177.377C343.462 173.642 342.363 170.873 340.122 169.027C337.881 167.182 334.717 165.644 330.63 164.457L319.292 161.205C316.787 160.458 315.513 159.271 315.513 157.602C315.513 156.503 316.128 155.536 317.402 154.701C318.677 153.866 320.215 153.471 322.017 153.471C326.499 153.471 329.751 155.229 331.729 158.788L342.275 155.712C340.825 152.24 338.276 149.472 334.673 147.362C331.069 145.253 326.851 144.198 322.061 144.198C317.007 144.198 312.7 145.517 309.141 148.197C305.581 150.878 303.779 154.086 303.779 157.865C303.779 163.798 307.515 167.841 315.029 169.994L326.631 173.422C330.015 174.433 331.685 175.927 331.685 177.904C331.685 179.223 330.981 180.321 329.575 181.244C328.169 182.167 326.367 182.606 324.126 182.606C321.182 182.606 318.677 181.903 316.567 180.497C314.458 179.091 313.008 177.289 312.217 175.048L301.494 178.168C302.681 181.991 305.317 185.287 309.404 188.056C313.491 190.824 318.237 192.23 323.643 192.23L323.774 192.274ZM386.353 145.473V150.966C382.837 146.439 377.959 144.198 371.719 144.198C365.347 144.198 359.985 146.483 355.679 151.054C351.372 155.624 349.219 161.381 349.219 168.28C349.219 175.092 351.372 180.805 355.679 185.419C359.985 190.033 365.303 192.318 371.675 192.318C377.871 192.318 382.749 190.033 386.309 185.463V209.94H398.306V145.517L386.353 145.473ZM373.74 181.684C370.005 181.684 366.929 180.409 364.512 177.904C362.095 175.399 360.908 172.147 360.908 168.192C360.908 164.281 362.095 161.073 364.512 158.568C366.929 156.063 370.005 154.833 373.74 154.833C377.388 154.833 380.464 156.107 382.969 158.612C385.474 161.117 386.704 164.281 386.704 168.104C386.704 172.016 385.474 175.224 382.969 177.772C380.464 180.321 377.388 181.596 373.74 181.596V181.684ZM442.119 145.473V167.885C442.119 171.972 441.108 175.224 439.131 177.641C437.153 180.058 434.473 181.244 431.089 181.244C427.925 181.244 425.508 180.233 423.838 178.212C422.168 176.19 421.333 173.422 421.333 169.862V145.561H409.468V172.104C409.468 178.388 411.006 183.354 414.038 186.957C417.07 190.561 421.553 192.362 427.441 192.362C433.638 192.362 438.516 190.033 442.075 185.331V191.088H453.984V145.561L442.119 145.473ZM485.449 192.274C491.689 192.274 496.567 189.989 500.083 185.419V191H512.08V145.473H500.083V150.966C496.567 146.439 491.689 144.198 485.449 144.198C479.077 144.198 473.716 146.483 469.409 151.054C465.103 155.624 462.949 161.381 462.949 168.28C462.949 175.092 465.103 180.805 469.409 185.419C473.716 190.033 479.033 192.318 485.405 192.318L485.449 192.274ZM487.471 181.684C483.735 181.684 480.659 180.409 478.242 177.904C475.825 175.399 474.639 172.147 474.639 168.192C474.639 164.281 475.825 161.073 478.242 158.568C480.659 156.063 483.735 154.833 487.471 154.833C491.118 154.833 494.194 156.107 496.699 158.612C499.204 161.117 500.435 164.281 500.435 168.104C500.435 172.016 499.204 175.224 496.699 177.772C494.194 180.321 491.118 181.596 487.471 181.596V181.684ZM535.591 152.196V145.473H523.726V191H535.591V171.181C535.591 165.204 536.865 160.985 539.37 158.524C541.875 156.063 545.61 155.229 550.576 156.02V144.857C543.545 143.891 538.535 146.352 535.547 152.24L535.591 152.196ZM577.778 192.274C583.271 192.274 587.93 190.956 591.753 188.363C595.576 185.771 598.213 182.738 599.707 179.311L588.984 176.146C586.875 180.146 583.184 182.167 577.91 182.167C573.955 182.167 570.879 181.244 568.638 179.354C566.396 177.465 565.078 174.96 564.683 171.84H600.059C600.234 170.873 600.322 169.467 600.322 167.621C600.322 160.897 598.213 155.316 593.994 150.878C589.775 146.439 584.019 144.242 576.768 144.242C569.692 144.242 563.936 146.527 559.541 151.098C555.146 155.668 552.949 161.425 552.949 168.324C552.949 175.531 555.234 181.332 559.805 185.727C564.375 190.121 570.308 192.318 577.646 192.318L577.778 192.274ZM564.595 164.413C564.946 161.645 566.221 159.271 568.418 157.294C570.615 155.316 573.34 154.306 576.636 154.306C580.063 154.306 582.832 155.272 584.985 157.206C587.139 159.14 588.369 161.557 588.677 164.413H564.595Z" fill="#0A0A0A"/>
<rect x="618" y="175" width="16" height="16" fill="#FF5200"/>
</svg>
