<svg width="64" height="64" viewBox="0 0 64 64" fill="none" xmlns="http://www.w3.org/2000/svg">
<path d="M32 38C35.3137 38 38 35.3137 38 32C38 28.6863 35.3137 26 32 26C28.6863 26 26 28.6863 26 32C26 35.3137 28.6863 38 32 38Z" stroke="#009946" stroke-width="3" stroke-linecap="round" stroke-linejoin="round"/>
<path d="M24 20C27.3137 20 30 17.3137 30 14C30 10.6863 27.3137 8 24 8C20.6863 8 18 10.6863 18 14C18 17.3137 20.6863 20 24 20Z" stroke="#009946" stroke-width="3" stroke-linecap="round" stroke-linejoin="round"/>
<path d="M50 32C53.3137 32 56 29.3137 56 26C56 22.6863 53.3137 20 50 20C46.6863 20 44 22.6863 44 26C44 29.3137 46.6863 32 50 32Z" stroke="#009946" stroke-width="3" stroke-linecap="round" stroke-linejoin="round"/>
<path d="M50 52C53.3137 52 56 49.3137 56 46C56 42.6863 53.3137 40 50 40C46.6863 40 44 42.6863 44 46C44 49.3137 46.6863 52 50 52Z" stroke="#009946" stroke-width="3" stroke-linecap="round" stroke-linejoin="round"/>
<path d="M14 54C17.3137 54 20 51.3137 20 48C20 44.6863 17.3137 42 14 42C10.6863 42 8 44.6863 8 48C8 51.3137 10.6863 54 14 54Z" stroke="#009946" stroke-width="3" stroke-linecap="round" stroke-linejoin="round"/>
<path d="M29.5751 26.525L26.425 19.475" stroke="#009946" stroke-width="3" stroke-linecap="round" stroke-linejoin="round"/>
<path d="M44.3 27.9L37.7 30.1" stroke="#009946" stroke-width="3" stroke-linecap="round" stroke-linejoin="round"/>
<path d="M45.2751 42.325L36.7251 35.675" stroke="#009946" stroke-width="3" stroke-linecap="round" stroke-linejoin="round"/>
<path d="M27.5251 35.975L18.4751 44.025" stroke="#009946" stroke-width="3" stroke-linecap="round" stroke-linejoin="round"/>
</svg>
