<svg width="64" height="64" viewBox="0 0 64 64" fill="none" xmlns="http://www.w3.org/2000/svg">
<path d="M32 40.5C36.1421 40.5 39.5 37.1421 39.5 33C39.5 28.8579 36.1421 25.5 32 25.5C27.8579 25.5 24.5 28.8579 24.5 33C24.5 37.1421 27.8579 40.5 32 40.5Z" stroke="#009946" stroke-width="3" stroke-linecap="round" stroke-linejoin="round"/>
<path d="M22 18C26.1421 18 29.5 14.6421 29.5 10.5C29.5 6.35786 26.1421 3 22 3C17.8579 3 14.5 6.35786 14.5 10.5C14.5 14.6421 17.8579 18 22 18Z" stroke="#009946" stroke-width="3" stroke-linecap="round" stroke-linejoin="round"/>
<path d="M54.5 33C58.6421 33 62 29.6421 62 25.5C62 21.3579 58.6421 18 54.5 18C50.3579 18 47 21.3579 47 25.5C47 29.6421 50.3579 33 54.5 33Z" stroke="#009946" stroke-width="3" stroke-linecap="round" stroke-linejoin="round"/>
<path d="M54.5 58C58.6421 58 62 54.6421 62 50.5C62 46.3579 58.6421 43 54.5 43C50.3579 43 47 46.3579 47 50.5C47 54.6421 50.3579 58 54.5 58Z" stroke="#009946" stroke-width="3" stroke-linecap="round" stroke-linejoin="round"/>
<path d="M9.5 60.5C13.6421 60.5 17 57.1421 17 53C17 48.8579 13.6421 45.5 9.5 45.5C5.35786 45.5 2 48.8579 2 53C2 57.1421 5.35786 60.5 9.5 60.5Z" stroke="#009946" stroke-width="3" stroke-linecap="round" stroke-linejoin="round"/>
<path d="M28.9688 26.1563L25.0312 17.3438" stroke="#009946" stroke-width="3" stroke-linecap="round" stroke-linejoin="round"/>
<path d="M47.375 27.875L39.125 30.625" stroke="#009946" stroke-width="3" stroke-linecap="round" stroke-linejoin="round"/>
<path d="M48.5937 45.9062L37.9062 37.5938" stroke="#009946" stroke-width="3" stroke-linecap="round" stroke-linejoin="round"/>
<path d="M26.4063 37.9688L15.0938 48.0312" stroke="#009946" stroke-width="3" stroke-linecap="round" stroke-linejoin="round"/>
</svg>
