<svg width="119" height="119" viewBox="0 0 119 119" fill="none" xmlns="http://www.w3.org/2000/svg">
<path fill-rule="evenodd" clip-rule="evenodd" d="M13.7308 45.7692L59.5 0L105.269 45.7692L91.5385 59.5L105.269 73.2308L59.5 119L13.7308 73.2308L27.4615 59.5L13.7308 45.7692ZM33.1827 65.2212L25.1731 73.2308L59.5 107.558L93.8269 73.2308L85.8173 65.2211L59.5 91.5385L33.1827 65.2212ZM64.0363 75.5599L59.5 80.0961L54.9638 75.5599L54.9638 43.4401L59.5 38.9038L64.0363 43.4401V75.5599ZM72.1272 67.4689L80.0962 59.5L72.1272 51.5311L72.1272 67.4689ZM72.1272 40.0888L85.8173 53.7788L93.8269 45.7692L59.5 11.4423L25.1731 45.7692L33.1827 53.7788L46.8728 40.0887L59.5 27.4615L72.1272 40.0887H72.1272V40.0888ZM46.8728 51.531L46.8728 67.469L38.9039 59.5L46.8728 51.531Z" fill="#8B00C8"/>
</svg>
