<svg width="580" height="600" viewBox="0 0 580 600" fill="none" xmlns="http://www.w3.org/2000/svg">
<g clip-path="url(#clip0_304_8531)">
<g clip-path="url(#clip1_304_8531)">
<path d="M239.899 533.64L162.37 488.878" stroke="#8B00C8" stroke-width="3" stroke-linecap="round" stroke-linejoin="round"/>
<path d="M199.819 555.126L159.503 531.849" stroke="#8B00C8" stroke-width="3" stroke-linecap="round" stroke-linejoin="round"/>
<path d="M474.657 9.52879C407.362 19.7781 168.466 78.2603 168.367 388.967L323.426 478.491C589.791 321.512 523.032 86.8832 498.885 23.5168C497.125 18.7162 493.735 14.6859 489.307 12.1294C484.879 9.57292 479.694 8.65249 474.657 9.52879Z" stroke="#8B00C8" stroke-width="3" stroke-linecap="round" stroke-linejoin="round"/>
<path d="M227.565 162.776L98.8944 209.951C95.6869 211.08 92.7971 212.963 90.4675 215.44C88.1379 217.917 86.4365 220.917 85.506 224.188L37.393 376.343C36.2602 379.966 36.0673 383.818 36.8328 387.536C37.5982 391.254 39.2967 394.716 41.7685 397.597C44.2403 400.477 47.4042 402.682 50.9627 404.004C54.5212 405.325 58.3573 405.72 62.1103 405.15L168.366 388.967" stroke="#8B00C8" stroke-width="3" stroke-linecap="round" stroke-linejoin="round"/>
<path d="M489.379 311.349L513.194 449.147C513.82 452.489 513.635 455.933 512.654 459.189C511.674 462.445 509.926 465.419 507.559 467.86L399.845 585.605C397.274 588.397 394.035 590.49 390.432 591.686C386.83 592.882 382.982 593.142 379.251 592.442C375.521 591.742 372.029 590.104 369.106 587.683C366.182 585.262 363.922 582.137 362.539 578.602L323.426 478.491" stroke="#8B00C8" stroke-width="3" stroke-linecap="round" stroke-linejoin="round"/>
<path d="M403.111 214.378C395.8 227.042 379.607 231.381 366.944 224.069C354.28 216.758 349.942 200.566 357.253 187.902C364.564 175.239 380.757 170.9 393.42 178.211C406.083 185.523 410.422 201.715 403.111 214.378Z" stroke="#8B00C8" stroke-width="3"/>
</g>
</g>
<defs>
<clipPath id="clip0_304_8531">
<rect width="580" height="600" fill="white"/>
</clipPath>
<clipPath id="clip1_304_8531">
<rect width="646" height="646" fill="white" transform="translate(217 -163) rotate(30)"/>
</clipPath>
</defs>
</svg>
