<svg width="642" height="684" viewBox="0 0 642 684" fill="none" xmlns="http://www.w3.org/2000/svg">
<g clip-path="url(#clip0_93_5940)">
<path d="M232.819 519.511L178.693 488.261" stroke="#8B00C8" stroke-width="3" stroke-linecap="round" stroke-linejoin="round"/>
<path d="M204.839 534.511L176.693 518.261" stroke="#8B00C8" stroke-width="3" stroke-linecap="round" stroke-linejoin="round"/>
<path d="M396.713 153.608C349.732 160.763 182.949 201.592 182.88 418.509L291.133 481.009C477.093 371.416 430.486 207.612 413.628 163.374C412.399 160.022 410.033 157.208 406.941 155.424C403.85 153.639 400.23 152.996 396.713 153.608Z" stroke="#8B00C8" stroke-width="3" stroke-linecap="round" stroke-linejoin="round"/>
<path d="M224.209 260.596L134.379 293.531C132.14 294.319 130.122 295.634 128.496 297.363C126.869 299.092 125.682 301.187 125.032 303.47L91.4423 409.696C90.6514 412.225 90.5168 414.914 91.0512 417.51C91.5855 420.106 92.7713 422.523 94.497 424.534C96.2227 426.545 98.4315 428.084 100.916 429.007C103.4 429.929 106.078 430.205 108.698 429.808L182.88 418.51" stroke="#8B00C8" stroke-width="3" stroke-linecap="round" stroke-linejoin="round"/>
<path d="M406.991 364.321L423.618 460.523C424.055 462.857 423.925 465.261 423.241 467.534C422.556 469.807 421.336 471.883 419.684 473.587L344.484 555.79C342.689 557.739 340.428 559.2 337.913 560.035C335.398 560.871 332.711 561.052 330.107 560.563C327.502 560.074 325.065 558.931 323.024 557.241C320.983 555.551 319.405 553.369 318.439 550.901L291.133 481.01" stroke="#8B00C8" stroke-width="3" stroke-linecap="round" stroke-linejoin="round"/>
<path d="M346.372 296.395C341.393 305.02 330.365 307.974 321.741 302.995C313.117 298.016 310.162 286.988 315.141 278.364C320.12 269.74 331.148 266.785 339.772 271.764C348.396 276.743 351.351 287.771 346.372 296.395Z" stroke="#8B00C8" stroke-width="3"/>
</g>
<defs>
<clipPath id="clip0_93_5940">
<rect width="500" height="500" fill="white" transform="translate(208) rotate(30)"/>
</clipPath>
</defs>
</svg>
