<svg width="119" height="119" viewBox="0 0 119 119" fill="none" xmlns="http://www.w3.org/2000/svg">
<path fill-rule="evenodd" clip-rule="evenodd" d="M59.397 4.05312e-06L0 59.397L14.1421 73.5391L59.397 118.794L104.652 73.5391L118.794 59.397L59.397 4.05312e-06ZM59.397 104.652L28.2843 73.5391L59.397 42.4264L90.5097 73.5391L59.397 104.652ZM59.397 28.2843L97.5807 66.468L104.652 59.397L59.397 14.1421L14.1421 59.397L21.2132 66.468L59.397 28.2843ZM39.598 73.5391L59.397 53.7401L79.196 73.5391L59.397 93.3381L39.598 73.5391ZM49.4975 73.5391L59.397 63.6396L69.2965 73.5391L59.397 83.4386L49.4975 73.5391Z" fill="#E4002B"/>
</svg>
