<svg width="494" height="920" viewBox="0 0 494 920" fill="none" xmlns="http://www.w3.org/2000/svg">
<g opacity="0.4">
<mask id="mask0_111_5572" style="mask-type:alpha" maskUnits="userSpaceOnUse" x="0" y="-379" width="1187" height="1299">
<rect width="1060.27" height="759.791" transform="matrix(-0.497426 -0.867506 -0.867095 0.498143 1186.59 541.499)" fill="#FFF5F0"/>
</mask>
<g mask="url(#mask0_111_5572)">
<path d="M16.3752 658.783L32.7708 674.851L49.1665 690.919L65.5621 706.987L81.9578 723.055L98.3535 739.123L114.749 755.191L131.145 771.259L-0.0205055 642.716L-0.0205061 674.851L16.3752 658.783Z" fill="#FF5200"/>
<path d="M32.7708 674.853L-0.0205071 706.988L-0.0205078 739.124L49.1664 690.92L32.7708 674.853Z" fill="#FF5200"/>
<path d="M65.5622 706.987L-0.0205078 771.259L32.7709 771.259L81.9579 723.055L65.5622 706.987Z" fill="#FF5200"/>
<path d="M98.3525 739.123L65.5615 771.259L98.3525 771.259L114.748 755.191L98.3525 739.123Z" fill="#FF5200"/>
<path d="M114.749 530.241L98.3533 546.308L81.9576 562.376L65.562 578.444L49.1664 594.512L32.7708 610.58L16.3751 626.648L-0.0205071 610.58L-0.0205078 642.716L131.145 514.173L114.749 530.241Z" fill="#FF5200"/>
<path d="M32.7708 417.766L49.1664 433.834L65.562 449.902L81.9576 465.97L98.3533 482.038L114.749 498.106L131.145 514.173L-0.0205048 385.631L-0.0205056 417.766L16.3751 401.698L32.7708 417.766Z" fill="#FF5200"/>
<path d="M32.7708 417.766L-0.0205071 449.902L-0.0205078 482.037L49.1664 433.834L32.7708 417.766Z" fill="#FF5200"/>
<path d="M49.1664 594.513L-0.0205063 546.309L-0.0205071 578.445L32.7708 610.581L49.1664 594.513Z" fill="#FF5200"/>
<path d="M81.9578 562.377L32.7708 514.173L81.9578 465.97L65.5621 449.902L-0.0205063 514.173L65.5621 578.445L81.9578 562.377Z" fill="#FF5200"/>
<path d="M114.748 498.105L98.3525 482.037L65.5615 514.173L98.3525 546.309L114.748 530.241L98.3525 514.173L114.748 498.105Z" fill="#FF5200"/>
<path d="M114.749 273.155L98.3533 289.223L81.9576 305.291L65.562 321.359L49.1664 337.427L32.7708 353.494L16.3751 369.562L-0.0205071 353.494L-0.0205078 385.63L131.145 257.087L114.749 273.155Z" fill="#FF5200"/>
<path d="M32.7708 160.681L49.1664 176.749L65.562 192.816L81.9576 208.884L98.3533 224.952L114.749 241.02L131.145 257.088L-0.0205048 128.545L-0.0205056 160.681L16.3751 144.613L32.7708 160.681Z" fill="#FF5200"/>
<path d="M49.1664 337.427L-0.0205063 289.224L-0.0205071 321.359L32.7708 353.495L49.1664 337.427Z" fill="#FF5200"/>
<path d="M32.7708 160.681L-0.0205071 192.817L-0.0205078 224.953L49.1664 176.749L32.7708 160.681Z" fill="#FF5200"/>
<path d="M81.9578 305.292L32.7708 257.089L81.9578 208.885L65.5621 192.817L-0.0205063 257.089L65.5621 321.36L81.9578 305.292Z" fill="#FF5200"/>
<path d="M114.748 241.019L98.3525 224.952L65.5615 257.087L98.3525 289.223L114.748 273.155L98.3525 257.087L114.748 241.019Z" fill="#FF5200"/>
<path d="M147.54 755.191L32.7708 642.716L147.54 530.241L131.145 514.173L-0.0205055 642.716L131.145 771.259L147.54 755.191Z" fill="#FF5200"/>
<path d="M180.33 562.377L163.935 546.31L65.5615 642.717L163.935 739.124L180.33 723.056L98.3526 642.717L180.33 562.377Z" fill="#FF5200"/>
<path d="M213.124 594.513L196.728 578.445L131.145 642.716L196.728 706.988L213.124 690.92L163.937 642.716L213.124 594.513Z" fill="#FF5200"/>
<path d="M245.915 626.647L229.519 610.579L196.727 642.715L229.519 674.851L245.915 658.783L229.519 642.715L245.915 626.647Z" fill="#FF5200"/>
<path d="M147.54 498.106L32.7708 385.631L147.54 273.156L131.145 257.088L-0.0205048 385.631L131.145 514.173L147.54 498.106Z" fill="#FF5200"/>
<path d="M180.33 305.291L163.935 289.223L65.5615 385.63L163.935 482.037L180.33 465.969L98.3526 385.63L180.33 305.291Z" fill="#FF5200"/>
<path d="M213.124 337.427L196.728 321.359L131.146 385.631L196.728 449.902L213.124 433.835L163.937 385.631L213.124 337.427Z" fill="#FF5200"/>
<path d="M245.915 369.563L229.519 353.495L196.728 385.631L229.519 417.766L245.915 401.698L229.519 385.631L245.915 369.563Z" fill="#FF5200"/>
<path d="M147.54 241.02L32.7708 128.545L147.54 16.0701L131.145 0.00228457L-0.0205048 128.545L131.145 257.088L147.54 241.02Z" fill="#FF5200"/>
<path d="M163.935 224.952L180.33 208.884L98.3526 128.545L180.33 48.2053L163.935 32.1375L65.5615 128.545L163.935 224.952Z" fill="#FF5200"/>
<path d="M196.728 192.817L213.123 176.749L163.936 128.545L213.123 80.3418L196.728 64.274L131.145 128.545L196.728 192.817Z" fill="#FF5200"/>
<path d="M229.518 160.681L245.914 144.613L229.518 128.545L245.914 112.477L229.518 96.4094L196.727 128.545L229.518 160.681Z" fill="#FF5200"/>
<path d="M114.749 16.0709L98.3533 32.1387L81.9576 48.2066L65.562 64.2744L49.1664 80.3423L32.7708 96.4101L16.3751 112.478L-0.0205071 96.4101L-0.0205078 128.546L131.145 0.00300936L114.749 16.0709Z" fill="#FF5200"/>
<path d="M49.1664 80.342L-0.0205063 32.1384L-0.0205071 64.2741L32.7708 96.4099L49.1664 80.342Z" fill="#FF5200"/>
<path d="M81.9573 48.2057L32.7706 0.00209774L-0.0205063 0.00209761L65.5617 64.2736L81.9573 48.2057Z" fill="#FF5200"/>
<path d="M114.748 16.0695L98.3525 0.00169505L65.5615 0.00169492L98.3525 32.1374L114.748 16.0695Z" fill="#FF5200"/>
<path d="M262.31 642.716L131.146 771.259L163.937 771.259L278.706 658.784L262.31 642.716Z" fill="#FF5200"/>
<path d="M295.101 674.852L196.728 771.259L229.519 771.259L311.497 690.919L295.101 674.852Z" fill="#FF5200"/>
<path d="M327.892 706.987L262.31 771.259L295.101 771.259L344.288 723.055L327.892 706.987Z" fill="#FF5200"/>
<path d="M360.683 739.123L327.892 771.259L360.683 771.259L377.078 755.191L360.683 739.123Z" fill="#FF5200"/>
<path d="M278.706 401.698L262.311 385.63L131.145 514.173L262.311 642.716L278.706 626.648L163.937 514.173L278.706 401.698Z" fill="#FF5200"/>
<path d="M311.497 433.834L295.101 417.766L196.727 514.173L295.101 610.581L311.497 594.513L229.519 514.173L311.497 433.834Z" fill="#FF5200"/>
<path d="M344.288 465.97L327.892 449.902L262.31 514.173L327.892 578.445L344.288 562.377L295.101 514.173L344.288 465.97Z" fill="#FF5200"/>
<path d="M377.079 498.105L360.683 482.037L327.892 514.173L360.683 546.309L377.079 530.241L360.683 514.173L377.079 498.105Z" fill="#FF5200"/>
<path d="M262.311 385.63L278.706 369.562L163.937 257.087L278.706 144.612L262.311 128.545L131.146 257.087L262.311 385.63Z" fill="#FF5200"/>
<path d="M295.101 353.495L311.497 337.427L229.519 257.088L311.497 176.749L295.101 160.681L196.728 257.088L295.101 353.495Z" fill="#FF5200"/>
<path d="M327.892 321.36L344.288 305.292L295.101 257.089L344.288 208.885L327.892 192.817L262.31 257.089L327.892 321.36Z" fill="#FF5200"/>
<path d="M360.683 289.223L377.079 273.155L360.683 257.087L377.079 241.019L360.683 224.952L327.892 257.087L360.683 289.223Z" fill="#FF5200"/>
<path d="M295.101 642.716L409.87 530.241L393.475 514.173L262.31 642.716L393.475 771.259L409.87 755.191L295.101 642.716Z" fill="#FF5200"/>
<path d="M442.661 562.377L426.265 546.31L327.891 642.717L426.265 739.124L442.661 723.056L360.683 642.717L442.661 562.377Z" fill="#FF5200"/>
<path d="M475.452 594.513L459.056 578.445L393.473 642.716L459.056 706.988L475.452 690.92L426.265 642.716L475.452 594.513Z" fill="#FF5200"/>
<path d="M508.245 626.647L491.849 610.579L459.057 642.715L491.849 674.851L508.245 658.783L491.849 642.715L508.245 626.647Z" fill="#FF5200"/>
<path d="M393.475 514.173L409.87 498.106L295.101 385.631L409.87 273.156L393.475 257.088L262.31 385.631L393.475 514.173Z" fill="#FF5200"/>
<path d="M426.265 482.037L442.661 465.969L360.683 385.63L442.661 305.291L426.265 289.223L327.892 385.63L426.265 482.037Z" fill="#FF5200"/>
<path d="M459.056 449.901L475.452 433.833L426.265 385.63L475.452 337.426L459.056 321.358L393.474 385.63L459.056 449.901Z" fill="#FF5200"/>
<path d="M491.849 417.765L508.245 401.697L491.849 385.629L508.245 369.562L491.849 353.494L459.058 385.629L491.849 417.765Z" fill="#FF5200"/>
<path d="M393.475 257.087L409.87 241.019L295.101 128.544L409.87 16.069L393.475 0.00118594L262.31 128.544L393.475 257.087Z" fill="#FF5200"/>
<path d="M426.266 224.952L442.661 208.884L360.683 128.545L442.661 48.2053L426.266 32.1374L327.892 128.545L426.266 224.952Z" fill="#FF5200"/>
<path d="M459.057 192.817L475.452 176.749L426.265 128.545L475.452 80.3418L459.057 64.274L393.474 128.545L459.057 192.817Z" fill="#FF5200"/>
<path d="M491.849 160.681L508.245 144.613L491.849 128.545L508.245 112.477L491.849 96.4094L459.058 128.545L491.849 160.681Z" fill="#FF5200"/>
<path d="M278.706 112.478L163.936 0.00302089L131.145 0.00302076L262.31 128.546L278.706 112.478Z" fill="#FF5200"/>
<path d="M311.496 80.3409L229.518 0.00159539L196.727 0.00159526L295.101 96.4088L311.496 80.3409Z" fill="#FF5200"/>
<path d="M344.288 48.2057L295.101 0.0021335L262.31 0.00213337L327.893 64.2736L344.288 48.2057Z" fill="#FF5200"/>
<path d="M377.079 16.0695L360.683 0.00168909L327.892 0.00168896L360.683 32.1374L377.079 16.0695Z" fill="#FF5200"/>
<path d="M524.639 642.716L393.474 771.259L426.265 771.259L541.034 658.784L524.639 642.716Z" fill="#FF5200"/>
<path d="M557.431 674.851L459.058 771.259L491.849 771.259L573.827 690.919L557.431 674.851Z" fill="#FF5200"/>
<path d="M541.035 401.698L524.639 385.63L393.473 514.173L524.639 642.716L541.035 626.648L426.265 514.173L541.035 401.698Z" fill="#FF5200"/>
<path d="M573.827 433.834L557.431 417.766L459.057 514.173L557.431 610.581L573.827 594.513L491.849 514.173L573.827 433.834Z" fill="#FF5200"/>
<path d="M524.639 385.63L541.035 369.562L426.265 257.087L541.035 144.612L524.639 128.544L393.474 257.087L524.639 385.63Z" fill="#FF5200"/>
<path d="M557.432 353.495L573.827 337.427L491.849 257.088L573.827 176.749L557.432 160.681L459.058 257.088L557.432 353.495Z" fill="#FF5200"/>
<path d="M541.035 112.476L426.265 0.000811707L393.474 0.000811577L524.639 128.544L541.035 112.476Z" fill="#FF5200"/>
<path d="M573.828 80.3409L491.849 0.00155963L459.058 0.0015595L557.432 96.4088L573.828 80.3409Z" fill="#FF5200"/>
<path d="M32.7661 931.301L49.1618 947.369L65.5574 963.437L81.953 979.505L98.3487 995.573L114.744 1011.64L131.14 1027.71L-0.0251435 899.166L-0.0251442 931.301L16.3705 915.233L32.7661 931.301Z" fill="#FF5200"/>
<path d="M147.536 1011.64L32.7662 899.166L147.536 786.691L131.14 770.623L-0.0251435 899.166L131.14 1027.71L147.536 1011.64Z" fill="#FF5200"/>
<path d="M163.93 995.572L180.326 979.504L98.348 899.165L180.326 818.826L163.93 802.758L65.5569 899.165L163.93 995.572Z" fill="#FF5200"/>
<path d="M196.723 963.437L213.119 947.37L163.932 899.166L213.119 850.962L196.723 834.894L131.141 899.166L196.723 963.437Z" fill="#FF5200"/>
<path d="M229.514 931.301L245.91 915.233L229.514 899.166L245.91 883.098L229.514 867.03L196.723 899.166L229.514 931.301Z" fill="#FF5200"/>
<path d="M114.744 786.691L98.3487 802.759L81.953 818.827L65.5574 834.895L49.1618 850.963L32.7661 867.03L16.3705 883.098L-0.0251457 867.03L-0.0251465 899.166L131.14 770.623L114.744 786.691Z" fill="#FF5200"/>
<path d="M49.1617 850.962L-0.025145 802.758L-0.0251457 834.894L32.7661 867.03L49.1617 850.962Z" fill="#FF5200"/>
<path d="M81.9527 818.826L32.766 770.622L-0.025145 770.622L65.5571 834.894L81.9527 818.826Z" fill="#FF5200"/>
<path d="M114.743 786.69L98.3479 770.622L65.5569 770.622L98.3479 802.758L114.743 786.69Z" fill="#FF5200"/>
<path d="M262.306 1156.25L278.702 1140.18L163.932 1027.71L278.702 915.233L262.306 899.165L131.141 1027.71L262.306 1156.25Z" fill="#FF5200"/>
<path d="M393.47 1027.71L409.866 1011.64L295.096 899.164L409.866 786.689L393.47 770.622L262.305 899.164L393.47 1027.71Z" fill="#FF5200"/>
<path d="M426.261 995.572L442.657 979.504L360.678 899.165L442.657 818.826L426.261 802.758L327.887 899.165L426.261 995.572Z" fill="#FF5200"/>
<path d="M459.052 963.437L475.447 947.37L426.26 899.166L475.447 850.962L459.052 834.894L393.469 899.166L459.052 963.437Z" fill="#FF5200"/>
<path d="M491.844 931.301L508.24 915.233L491.844 899.166L508.24 883.098L491.844 867.03L459.053 899.166L491.844 931.301Z" fill="#FF5200"/>
<path d="M278.701 883.098L163.932 770.623L131.141 770.623L262.306 899.166L278.701 883.098Z" fill="#FF5200"/>
<path d="M311.492 850.961L229.514 770.622L196.723 770.622L295.096 867.029L311.492 850.961Z" fill="#FF5200"/>
<path d="M344.283 818.826L295.096 770.623L262.305 770.623L327.888 834.894L344.283 818.826Z" fill="#FF5200"/>
<path d="M377.074 786.69L360.678 770.622L327.887 770.622L360.678 802.758L377.074 786.69Z" fill="#FF5200"/>
<path d="M524.634 1156.25L541.03 1140.18L426.26 1027.71L541.03 915.233L524.634 899.165L393.469 1027.71L524.634 1156.25Z" fill="#FF5200"/>
<path d="M541.03 883.096L426.26 770.621L393.469 770.621L524.634 899.164L541.03 883.096Z" fill="#FF5200"/>
<path d="M573.823 850.961L491.844 770.622L459.053 770.622L557.427 867.029L573.823 850.961Z" fill="#FF5200"/>
</g>
</g>
</svg>
