<svg width="614" height="579" viewBox="0 0 614 579" fill="none" xmlns="http://www.w3.org/2000/svg">
<g opacity="0.4">
<mask id="mask0_111_5201" style="mask-type:alpha" maskUnits="userSpaceOnUse" x="0" y="0" width="1341" height="1346">
<rect width="1030.38" height="869.154" transform="matrix(-0.694659 0.719339 0.71934 0.694658 715.771 0.609131)" fill="#0075C9"/>
</mask>
<g mask="url(#mask0_111_5201)">
<path d="M268.733 691.763L71.2286 691.32L63.8937 493.956L35.6788 493.893L44.0615 719.452L269.78 719.957L268.733 691.763Z" fill="#FF5200"/>
<path d="M267.651 663.599L266.603 635.404L125.531 635.089L120.292 494.115L92.0769 494.052L98.364 663.22L267.651 663.599Z" fill="#FF5200"/>
<path d="M265.522 607.24L264.474 579.046L179.832 578.857L176.689 494.275L148.475 494.211L152.666 606.988L265.522 607.24Z" fill="#FF5200"/>
<path d="M263.394 550.883L262.346 522.691L234.133 522.627L233.086 494.435L204.873 494.372L206.969 550.757L263.394 550.883Z" fill="#FF5200"/>
<path d="M36.7088 522.072L37.7565 550.262L38.8041 578.452L39.8518 606.642L40.8995 634.832L41.9471 663.022L42.9948 691.212L14.7847 691.149L44.0425 719.402L35.6611 493.881L36.7088 522.072Z" fill="#FF5200"/>
<path d="M38.796 578.423L-45.8288 578.234L-72.9895 606.359L39.8436 606.611L38.796 578.423Z" fill="#FF5200"/>
<path d="M36.6661 522.062L8.45909 521.998L-18.6994 550.12L37.7147 550.249L36.6661 522.062Z" fill="#FF5200"/>
<path d="M495.462 720.598L494.414 692.404L296.91 691.961L289.575 494.596L261.36 494.533L269.743 720.093L495.462 720.598Z" fill="#FF5200"/>
<path d="M493.333 664.24L492.285 636.045L351.212 635.729L345.973 494.756L317.758 494.693L324.045 663.861L493.333 664.24Z" fill="#FF5200"/>
<path d="M491.203 607.883L490.155 579.689L405.513 579.5L402.369 494.917L374.155 494.854L378.346 607.631L491.203 607.883Z" fill="#FF5200"/>
<path d="M489.074 551.525L488.027 523.332L459.814 523.269L458.766 495.076L430.554 495.013L432.649 551.398L489.074 551.525Z" fill="#FF5200"/>
<path d="M721.142 721.241L720.094 693.046L522.59 692.603L515.255 495.239L487.041 495.176L495.423 720.735L721.142 721.241Z" fill="#FF5200"/>
<path d="M719.013 664.882L717.965 636.687L576.892 636.371L571.653 495.398L543.438 495.335L549.725 664.503L719.013 664.882Z" fill="#FF5200"/>
<path d="M716.884 608.524L715.836 580.33L631.194 580.141L628.051 495.558L599.837 495.495L604.028 608.271L716.884 608.524Z" fill="#FF5200"/>
<path d="M486.943 495.077L485.896 466.882L288.392 466.439L281.057 269.075L252.842 269.012L261.225 494.571L486.943 495.077Z" fill="#FF5200"/>
<path d="M484.815 438.719L483.767 410.525L342.694 410.209L337.455 269.236L309.24 269.172L315.527 438.34L484.815 438.719Z" fill="#FF5200"/>
<path d="M482.686 382.362L481.638 354.167L396.996 353.978L393.852 269.396L365.638 269.332L369.83 382.109L482.686 382.362Z" fill="#FF5200"/>
<path d="M480.557 326.003L479.51 297.811L451.297 297.748L450.249 269.555L422.037 269.492L424.132 325.877L480.557 326.003Z" fill="#FF5200"/>
<path d="M260.219 466.269L62.7546 465.827L35.5931 493.953L261.266 494.458L260.219 466.269Z" fill="#FF5200"/>
<path d="M258.089 409.906L117.045 409.59L89.8837 437.716L259.137 438.095L258.089 409.906Z" fill="#FF5200"/>
<path d="M255.96 353.544L171.335 353.354L144.174 381.479L257.007 381.732L255.96 353.544Z" fill="#FF5200"/>
<path d="M253.83 297.181L225.622 297.117L198.464 325.24L254.878 325.369L253.83 297.181Z" fill="#FF5200"/>
<path d="M740.937 495.879L712.722 495.816L721.105 721.375L946.824 721.881L945.776 693.686L748.272 693.244L740.937 495.879Z" fill="#FF5200"/>
<path d="M712.625 495.719L711.577 467.524L514.073 467.082L506.739 269.717L478.524 269.654L486.906 495.213L712.625 495.719Z" fill="#FF5200"/>
<path d="M710.496 439.36L709.448 411.166L568.375 410.85L563.136 269.876L534.922 269.813L541.209 438.981L710.496 439.36Z" fill="#FF5200"/>
<path d="M708.367 383.002L707.319 354.808L622.677 354.618L619.534 270.036L591.32 269.973L595.511 382.749L708.367 383.002Z" fill="#FF5200"/>
<path d="M938.306 496.36L937.259 468.165L739.755 467.722L732.42 270.358L704.205 270.295L712.588 495.854L938.306 496.36Z" fill="#FF5200"/>
<path d="M704.108 270.197L703.06 242.002L505.556 241.56L498.222 44.1952L470.007 44.132L478.389 269.691L704.108 270.197Z" fill="#FF5200"/>
<path d="M701.978 213.84L700.93 185.645L559.857 185.329L554.618 44.3563L526.404 44.2931L532.691 213.461L701.978 213.84Z" fill="#FF5200"/>
<path d="M699.849 157.482L698.802 129.287L614.159 129.098L611.016 44.5157L582.802 44.4525L586.993 157.229L699.849 157.482Z" fill="#FF5200"/>
<path d="M697.721 101.123L696.673 72.9308L668.46 72.8676L667.413 44.6751L639.2 44.6119L641.296 100.997L697.721 101.123Z" fill="#FF5200"/>
<path d="M477.382 241.389L279.918 240.947L252.756 269.073L478.429 269.578L477.382 241.389Z" fill="#FF5200"/>
<path d="M475.253 185.026L334.209 184.71L307.047 212.836L476.3 213.215L475.253 185.026Z" fill="#FF5200"/>
<path d="M473.124 128.663L388.499 128.473L361.338 156.599L474.171 156.851L473.124 128.663Z" fill="#FF5200"/>
<path d="M470.993 72.3022L442.786 72.2381L415.627 100.361L472.042 100.489L470.993 72.3022Z" fill="#FF5200"/>
<path d="M704.016 270.274L929.742 270.78L900.478 242.521L731.184 242.142L724.897 72.9665L695.633 44.7075L704.016 270.274Z" fill="#FF5200"/>
<path d="M695.601 44.6946L666.343 16.4413L497.082 16.0622L469.92 44.1892L695.601 44.6946Z" fill="#FF5200"/>
<path d="M607.794 -40.0655L551.374 -40.1918L524.211 -12.0649L637.052 -11.8122L607.794 -40.0655Z" fill="#FF5200"/>
</g>
</g>
</svg>
