<svg width="825" height="606" viewBox="0 0 825 606" fill="none" xmlns="http://www.w3.org/2000/svg">
<g opacity="0.4">
<mask id="mask0_111_5201" style="mask-type:alpha" maskUnits="userSpaceOnUse" x="-1" y="0" width="1740" height="1739">
<rect width="1334" height="1125" transform="matrix(-0.707107 0.707106 0.707107 0.707106 943.28 0.000854492)" fill="#0075C9"/>
</mask>
<g mask="url(#mask0_111_5201)">
<path d="M450.581 541.096L449.987 570.606L449.392 600.115L448.798 629.624L448.204 659.134L447.609 688.643L447.015 718.153L417.502 718.575L446.42 747.662L451.175 511.587L450.581 541.096Z" fill="#FF5200"/>
<path d="M274.102 514.121L303.614 513.699L333.127 513.277L362.639 512.854L392.151 512.432L421.664 512.01L451.176 511.588L215.077 514.966L243.995 544.053L244.59 514.543L274.102 514.121Z" fill="#FF5200"/>
<path d="M274.103 514.122L272.914 573.14L301.832 602.228L303.615 513.699L274.103 514.122Z" fill="#FF5200"/>
<path d="M451.394 598.116L362.856 599.383L364.64 510.855L335.127 511.277L332.75 629.315L450.799 627.626L451.394 598.116Z" fill="#FF5200"/>
<path d="M423.663 510.009L394.15 510.432L392.961 569.451L451.986 568.606L452.581 539.097L423.068 539.519L423.663 510.009Z" fill="#FF5200"/>
<path d="M684.114 712.775L477.528 715.731L481.688 509.165L452.176 509.587L447.421 745.663L683.52 742.285L684.114 712.775Z" fill="#FF5200"/>
<path d="M540.712 508.321L511.2 508.743L507.634 685.799L684.708 683.266L685.302 653.757L537.74 655.868L540.712 508.321Z" fill="#FF5200"/>
<path d="M599.739 507.475L570.226 507.898L567.849 625.935L685.898 624.246L686.492 594.737L597.955 596.004L599.739 507.475Z" fill="#FF5200"/>
<path d="M658.763 506.631L629.251 507.053L628.062 566.072L687.087 565.227L687.681 535.718L658.169 536.14L658.763 506.631Z" fill="#FF5200"/>
<path d="M453.77 482.078L247.184 485.034L251.345 278.468L221.832 278.89L217.077 514.966L453.176 511.588L453.77 482.078Z" fill="#FF5200"/>
<path d="M452.364 452.569L452.958 423.06L305.396 425.171L308.368 277.624L278.856 278.046L275.29 455.102L452.364 452.569Z" fill="#FF5200"/>
<path d="M453.555 393.549L454.149 364.04L365.612 365.307L367.395 276.778L337.883 277.201L335.505 395.238L453.555 393.549Z" fill="#FF5200"/>
<path d="M454.742 334.53L455.337 305.021L425.825 305.443L426.419 275.934L396.907 276.356L395.718 335.375L454.742 334.53Z" fill="#FF5200"/>
<path d="M219.238 308.4L218.644 337.91L218.049 367.419L217.455 396.928L216.86 426.438L216.266 455.947L215.672 485.457L186.159 485.879L215.077 514.966L219.832 278.891L219.238 308.4Z" fill="#FF5200"/>
<path d="M216.861 426.438L128.324 427.704L157.242 456.792L216.267 455.947L216.861 426.438Z" fill="#FF5200"/>
<path d="M218.049 367.418L129.512 368.685L99.4055 398.617L217.455 396.928L218.049 367.418Z" fill="#FF5200"/>
<path d="M219.237 308.4L189.725 308.822L159.618 338.754L218.643 337.909L219.237 308.4Z" fill="#FF5200"/>
<path d="M716.788 505.786L687.275 506.208L682.52 742.283L918.619 738.905L919.214 709.396L712.627 712.352L716.788 505.786Z" fill="#FF5200"/>
<path d="M775.812 504.942L746.3 505.364L742.734 682.421L919.808 679.887L920.402 650.378L772.841 652.489L775.812 504.942Z" fill="#FF5200"/>
<path d="M834.836 504.098L805.324 504.52L802.947 622.557L920.996 620.868L921.59 591.359L833.053 592.626L834.836 504.098Z" fill="#FF5200"/>
<path d="M688.275 507.208L688.87 477.699L482.283 480.654L486.444 274.089L456.932 274.511L452.177 510.586L688.275 507.208Z" fill="#FF5200"/>
<path d="M689.464 448.19L690.059 418.681L542.497 420.792L545.469 273.245L515.957 273.667L512.39 450.724L689.464 448.19Z" fill="#FF5200"/>
<path d="M690.653 389.172L691.248 359.663L602.711 360.93L604.494 272.401L574.982 272.824L572.604 390.861L690.653 389.172Z" fill="#FF5200"/>
<path d="M691.84 330.152L692.435 300.643L662.922 301.065L663.517 271.556L634.004 271.978L632.816 330.997L691.84 330.152Z" fill="#FF5200"/>
<path d="M948.725 710.975L952.886 504.409L923.373 504.831L918.618 740.906L1154.72 737.528L1155.31 708.019L948.725 710.975Z" fill="#FF5200"/>
<path d="M923.373 503.831L923.968 474.322L717.381 477.278L721.542 270.712L692.03 271.134L687.275 507.209L923.373 503.831Z" fill="#FF5200"/>
<path d="M924.562 444.812L925.156 415.303L777.594 417.414L780.566 269.867L751.054 270.289L747.488 447.346L924.562 444.812Z" fill="#FF5200"/>
<path d="M925.75 385.794L926.344 356.284L837.807 357.551L839.59 269.023L810.078 269.445L807.7 387.483L925.75 385.794Z" fill="#FF5200"/>
<path d="M693.029 272.133L693.623 242.624L487.037 245.579L491.197 39.0134L461.685 39.4357L456.93 275.511L693.029 272.133Z" fill="#FF5200"/>
<path d="M693.218 213.115L693.812 183.606L546.25 185.717L549.222 38.1698L519.71 38.5921L516.144 215.649L693.218 213.115Z" fill="#FF5200"/>
<path d="M694.407 154.097L695.001 124.588L606.464 125.855L608.247 37.3265L578.735 37.7488L576.357 155.786L694.407 154.097Z" fill="#FF5200"/>
<path d="M695.596 95.077L696.191 65.5675L666.678 65.9898L667.273 36.4804L637.761 36.9026L636.572 95.9215L695.596 95.077Z" fill="#FF5200"/>
<path d="M456.527 246.002L249.94 248.958L219.833 278.89L455.932 275.512L456.527 246.002Z" fill="#FF5200"/>
<path d="M457.714 186.983L310.152 189.094L280.046 219.026L457.12 216.492L457.714 186.983Z" fill="#FF5200"/>
<path d="M458.903 127.965L370.366 129.232L340.259 159.163L458.308 157.474L458.903 127.965Z" fill="#FF5200"/>
<path d="M460.091 68.946L430.578 69.3683L400.471 99.3L459.496 98.4554L460.091 68.946Z" fill="#FF5200"/>
<path d="M957.64 268.334L928.127 268.756L923.373 504.832L1159.47 501.454L1160.07 471.944L953.479 474.9L957.64 268.334Z" fill="#FF5200"/>
<path d="M928.127 268.756L928.722 239.247L722.135 242.203L726.296 35.6368L696.784 36.059L692.029 272.134L928.127 268.756Z" fill="#FF5200"/>
<path d="M929.318 209.737L929.912 180.227L782.35 182.339L785.322 34.7915L755.81 35.2138L752.244 212.27L929.318 209.737Z" fill="#FF5200"/>
<path d="M930.507 150.719L931.102 121.21L842.564 122.476L844.348 33.9481L814.835 34.3704L812.458 152.408L930.507 150.719Z" fill="#FF5200"/>
<path d="M1164.23 265.378L1164.82 235.868L958.235 238.824L962.396 32.2582L932.884 32.6805L928.129 268.756L1164.23 265.378Z" fill="#FF5200"/>
<path d="M932.883 32.6798L933.477 3.17041L726.891 6.12615L731.051 -200.44L701.539 -200.018L696.784 36.0578L932.883 32.6798Z" fill="#FF5200"/>
<path d="M934.072 -26.338L934.666 -55.8475L787.104 -53.7362L790.076 -201.283L760.564 -200.861L756.998 -23.8045L934.072 -26.338Z" fill="#FF5200"/>
<path d="M697.377 6.54895L490.791 9.50469L460.684 39.4364L696.783 36.0584L697.377 6.54895Z" fill="#FF5200"/>
<path d="M698.568 -52.4709L551.006 -50.3596L520.899 -20.4279L697.973 -22.9615L698.568 -52.4709Z" fill="#FF5200"/>
<path d="M932.826 32.6244L1168.93 29.2464L1140.01 0.159208L962.933 2.69275L966.499 -174.364L937.581 -203.451L932.826 32.6244Z" fill="#FF5200"/>
</g>
</g>
</svg>
